# xmcd
#
# Track frame offsets: 
#        150
#        14267
#        39275
#        63145
#        88475
#        112637
#        139055
#        155385
#
# Disc length: 2327 seconds
#
# Revision: 1
# Processed by: cddbd v1.5.2PL0 Copyright (c) Steve Scherf et al.
# Submitted via: ExactAudioCopy v0.95b4
#
DISCID=58091508
DTITLE=The Three Sounds - It Just Got To Be
DYEAR=1960
DGENRE=Jazz
TTITLE0=One For Renee
TTITLE1=The Nearness Of You
TTITLE2=Stella By Starlight
TTITLE3=It Just Got To Be
TTITLE4=If I Were A Bell
TTITLE5=Blue 'N' Boogie
TTITLE6=Real Gone
TTITLE7=South Of The Border
EXTD=YEAR: 1960
EXTT0=
EXTT1=
EXTT2=
EXTT3=
EXTT4=
EXTT5=
EXTT6=
EXTT7=
PLAYORDER=
